<svg width="134" height="35" viewBox="0 0 134 35" fill="none" xmlns="http://www.w3.org/2000/svg">
<circle cx="61" cy="17" r="17" fill="#F9CADA"/>
<path d="M3.332 8.296L1.176 7.932V6.196H10.136V7.932L7.448 8.296V25.012L13.44 24.76L15.204 19.524L17.472 19.832L16.604 27H1.12V25.32L3.332 25.04V8.296ZM31.7435 27.28C31.1275 27.28 30.6795 27.1493 30.3995 26.888C30.1195 26.6267 29.9795 26.2347 29.9795 25.712V24.956C29.4755 25.572 28.7661 26.1227 27.8515 26.608C26.9368 27.0747 26.0221 27.308 25.1075 27.308C23.3155 27.308 22.0368 26.8507 21.2715 25.936C20.5061 25.0027 20.1235 23.472 20.1235 21.344V13.448L18.7235 13.056V11.46L23.4835 11.096H23.5115L24.0715 11.488V21.344C24.0715 22.7067 24.2395 23.6587 24.5755 24.2C24.9115 24.7413 25.5368 25.012 26.4515 25.012C27.5528 25.012 28.5795 24.5827 29.5315 23.724V13.448L27.6555 13.028V11.46L32.7235 11.096H32.7795L33.4515 11.488V25.264H35.0195L34.9915 26.86C34.9168 26.8787 34.5715 26.9533 33.9555 27.084C33.3395 27.2147 32.6021 27.28 31.7435 27.28ZM42.1223 19.356L37.5023 13.392L36.0463 13.056V11.432H44.1383V13.056L42.3183 13.392L44.5303 16.5L45.2583 17.676L45.9863 16.5L48.2543 13.392L46.3503 13.056V11.432H52.4263V13.056L50.8303 13.392L46.4063 18.824L51.2503 25.096L52.7903 25.348V27H44.6983V25.348L46.3503 25.068L44.1943 21.792L43.3543 20.56L42.6823 21.764L40.3863 25.068L42.5423 25.348V27H35.8223V25.348L37.6143 25.068L42.1223 19.356ZM61.0074 27.308C59.9994 27.308 59.0941 27.224 58.2914 27.056C57.4887 26.888 56.5927 26.664 55.6034 26.384C54.9501 26.1973 54.5114 26.0947 54.2874 26.076L54.5394 20.896H56.8074L57.4234 24.508C57.6661 24.7693 58.0954 25.0027 58.7114 25.208C59.3461 25.4133 60.0647 25.516 60.8674 25.516C62.1181 25.516 63.0514 25.2453 63.6674 24.704C64.3021 24.144 64.6194 23.3693 64.6194 22.38C64.6194 21.7267 64.4327 21.1667 64.0594 20.7C63.6861 20.2147 63.1727 19.7853 62.5194 19.412C61.8661 19.02 60.9701 18.572 59.8314 18.068C58.2821 17.3587 56.9941 16.5187 55.9674 15.548C54.9594 14.5587 54.4554 13.224 54.4554 11.544C54.4554 10.4987 54.7261 9.556 55.2674 8.716C55.8087 7.85733 56.6114 7.18533 57.6754 6.7C58.7581 6.196 60.0741 5.944 61.6234 5.944C62.5381 5.944 63.3407 6.00933 64.0314 6.14C64.7407 6.27067 65.5061 6.448 66.3274 6.672C66.8127 6.80267 67.1767 6.88667 67.4194 6.924L67.2514 11.824H65.0114L64.4234 8.38C64.2554 8.212 63.9194 8.05333 63.4154 7.904C62.9114 7.736 62.3514 7.652 61.7354 7.652C60.6154 7.652 59.7661 7.91333 59.1874 8.436C58.6274 8.94 58.3474 9.62133 58.3474 10.48C58.3474 11.1707 58.5527 11.768 58.9634 12.272C59.3927 12.776 59.9061 13.2053 60.5034 13.56C61.1007 13.896 62.0434 14.3813 63.3314 15.016C64.3767 15.52 65.2727 16.0147 66.0194 16.5C66.7661 16.9853 67.4101 17.62 67.9514 18.404C68.4927 19.1693 68.7634 20.0747 68.7634 21.12C68.7634 22.1467 68.5021 23.1267 67.9794 24.06C67.4754 24.9933 66.6354 25.768 65.4594 26.384C64.3021 27 62.8181 27.308 61.0074 27.308ZM86.3065 18.712C86.3065 20.28 85.9798 21.7173 85.3265 23.024C84.6918 24.3307 83.7492 25.376 82.4985 26.16C81.2665 26.9253 79.7918 27.308 78.0745 27.308C77.7012 27.308 77.3092 27.2707 76.8985 27.196C76.5065 27.14 76.1892 27.0653 75.9465 26.972L76.0305 29.296V31.844L78.6345 32.18V33.776H70.3185V32.18L72.1385 31.844V14.092L70.3185 13.588V11.656L74.9385 11.068H74.9945L75.6945 11.628V13.196C76.1612 12.6173 76.7958 12.1133 77.5985 11.684C78.4012 11.2547 79.2785 11.04 80.2305 11.04C82.0038 11.04 83.4598 11.6747 84.5985 12.944C85.7372 14.1947 86.3065 16.1173 86.3065 18.712ZM78.7745 13.364C78.2145 13.364 77.6825 13.4853 77.1785 13.728C76.6745 13.9707 76.2918 14.2413 76.0305 14.54V24.928C76.1612 25.1147 76.4225 25.2733 76.8145 25.404C77.2252 25.5347 77.6732 25.6 78.1585 25.6C79.3718 25.6 80.3332 25.0773 81.0425 24.032C81.7705 22.968 82.1345 21.3067 82.1345 19.048C82.1345 17.144 81.8265 15.7253 81.2105 14.792C80.5945 13.84 79.7825 13.364 78.7745 13.364ZM88.2879 22.632C88.2879 20.9333 89.1373 19.6547 90.8359 18.796C92.5533 17.9373 94.7653 17.4987 97.4719 17.48V16.836C97.4719 16.0707 97.3879 15.4733 97.2199 15.044C97.0706 14.6147 96.7813 14.2973 96.3519 14.092C95.9413 13.868 95.3346 13.756 94.5319 13.756C93.6173 13.756 92.7959 13.8773 92.0679 14.12C91.3399 14.344 90.5839 14.6427 89.7999 15.016L88.9319 13.224C89.2119 12.9813 89.6786 12.692 90.3319 12.356C91.0039 12.02 91.7973 11.7307 92.7119 11.488C93.6266 11.2267 94.5693 11.096 95.5399 11.096C96.9773 11.096 98.0973 11.2827 98.8999 11.656C99.7213 12.0293 100.309 12.6267 100.664 13.448C101.019 14.2693 101.196 15.3707 101.196 16.752V25.32H102.708V26.888C102.335 26.9813 101.803 27.0747 101.112 27.168C100.421 27.2613 99.8146 27.308 99.2919 27.308C98.6573 27.308 98.2279 27.2147 98.0039 27.028C97.7986 26.8413 97.6959 26.4587 97.6959 25.88V25.124C97.1919 25.684 96.5386 26.188 95.7359 26.636C94.9333 27.084 94.0279 27.308 93.0199 27.308C92.1613 27.308 91.3679 27.1307 90.6399 26.776C89.9306 26.4027 89.3613 25.8707 88.9319 25.18C88.5026 24.4707 88.2879 23.6213 88.2879 22.632ZM94.8119 24.984C95.2039 24.984 95.6519 24.872 96.1559 24.648C96.6599 24.4053 97.0986 24.116 97.4719 23.78V19.188C95.7919 19.188 94.5319 19.4773 93.6919 20.056C92.8706 20.616 92.4599 21.344 92.4599 22.24C92.4599 23.136 92.6653 23.8173 93.0759 24.284C93.5053 24.7507 94.0839 24.984 94.8119 24.984ZM104.091 19.3C104.091 17.6947 104.409 16.2667 105.043 15.016C105.697 13.7653 106.621 12.7947 107.815 12.104C109.029 11.3947 110.438 11.04 112.043 11.04C112.79 11.04 113.434 11.096 113.975 11.208C114.517 11.32 115.123 11.4693 115.795 11.656L116.607 11.88L116.439 16.668H114.003L113.303 13.588C113.191 13.1027 112.641 12.86 111.651 12.86C110.606 12.86 109.785 13.3173 109.187 14.232C108.609 15.1467 108.31 16.5747 108.291 18.516C108.291 20.5693 108.646 22.1467 109.355 23.248C110.065 24.3307 111.007 24.872 112.183 24.872C113.602 24.872 114.909 24.4893 116.103 23.724L116.747 25.18C116.262 25.7027 115.515 26.188 114.507 26.636C113.518 27.084 112.445 27.308 111.287 27.308C108.898 27.308 107.097 26.5707 105.883 25.096C104.689 23.6213 104.091 21.6893 104.091 19.3ZM126.031 27.308C123.567 27.308 121.728 26.5893 120.515 25.152C119.32 23.696 118.723 21.7173 118.723 19.216C118.723 17.536 119.031 16.08 119.647 14.848C120.282 13.616 121.168 12.6733 122.307 12.02C123.446 11.3667 124.762 11.04 126.255 11.04C128.122 11.04 129.559 11.5347 130.567 12.524C131.575 13.4947 132.098 14.8853 132.135 16.696C132.135 17.928 132.06 18.8427 131.911 19.44H122.811C122.886 21.1387 123.287 22.464 124.015 23.416C124.743 24.3493 125.779 24.816 127.123 24.816C127.851 24.816 128.598 24.6947 129.363 24.452C130.147 24.2093 130.763 23.92 131.211 23.584L131.911 25.124C131.407 25.6653 130.586 26.1693 129.447 26.636C128.327 27.084 127.188 27.308 126.031 27.308ZM128.215 17.76C128.252 17.2373 128.271 16.836 128.271 16.556C128.271 14.0733 127.44 12.832 125.779 12.832C124.864 12.832 124.155 13.196 123.651 13.924C123.147 14.652 122.867 15.9307 122.811 17.76H128.215Z" fill="black"/>
</svg>
